<svg width="130" height="133" viewBox="0 0 130 133" fill="none" xmlns="http://www.w3.org/2000/svg">
<g clip-path="url(#clip0_9_1033)">
<path d="M71.9041 4.56055H77.5024L81.0381 6.47839L84.4265 8.39622L88.4041 10.6091L90.7613 11.9368L94.739 14.1497L98.422 16.2151L101.958 18.1329L105.493 20.1983L109.029 22.1161L112.418 24.034L115.069 25.5092L118.458 27.4271L122.141 29.4924L122.435 29.7875L122.288 30.5251L122.141 53.0966L119.784 52.8016L91.4979 48.0807L92.6765 48.6708L99.4532 50.7362L103.726 52.0639L108.882 53.6867L113.449 55.162L120.226 57.2273L127.297 59.2927L128.918 59.8828L129.359 60.4729H127.886L121.257 59.4402L105.788 57.3749L99.8952 56.6372L94.0024 56.0471L81.48 54.5719L77.9443 54.1293L77.6497 53.9818V56.6372L83.3952 57.0798L91.6452 57.8174L96.9488 58.26L106.23 59.1452L117.132 60.0303L122.73 60.3254L122.435 61.063L121.257 62.0957L120.52 62.3907L120.226 69.1769L119.489 69.472L115.806 70.0621L115.364 72.7176L115.217 73.1601L118.31 72.8651H121.109L122.435 73.7503V74.0453L121.699 74.3404L114.775 75.5206L106.23 77.1433L98.864 78.4711L80.0068 82.0117L77.5024 82.4543H56.8774L0.600586 82.0117V81.7167L2.22112 81.1266L14.0068 79.2087L15.3327 79.0612V78.6186L14.7434 77.5859L14.1542 75.8156L12.8283 75.6681L9.88183 75.5206L8.11398 75.2255L6.78808 74.6354L5.90416 73.8978L5.75683 73.6027L5.46219 65.7838V57.965L5.60951 57.5224L5.75683 55.3095L7.37737 53.2441L7.81933 52.5065H6.1988L5.46219 52.359V42.7698L6.1988 42.4747L6.34612 41.8846L6.64076 37.1638H5.60951L4.57826 36.8687L3.84166 36.5737L2.95773 36.2786L2.66309 35.6885L1.92648 35.3935V33.9182L2.81041 25.2142L3.10505 23.8865L3.84166 23.1488L4.43094 22.8538L4.87291 22.1161L8.55594 21.3785L9.29255 18.723L10.3238 16.6577L11.0604 16.0676L11.5024 15.9201L16.0693 15.625L24.0247 15.3299L30.5068 15.1824H54.3729L55.4041 15.4775L55.9934 16.2151V18.1329L55.4041 26.3944L54.8149 32.1479L54.3729 34.0658L53.7836 34.9509L52.8997 35.6885L52.4577 35.8361L9.88183 36.2786H9.58719L9.73451 39.5242L10.0292 41.8846L10.9131 43.0648L11.797 45.8678L13.5649 51.1788L14.7434 55.0144L15.0381 55.6046H23.73L30.0649 55.7521L44.6497 55.8996L46.1229 55.6046L47.1541 54.4243L47.8908 53.3917L48.922 52.9491H54.5202L59.9711 53.3917L66.6006 54.4243L67.7791 55.0144L68.0738 55.457L57.172 54.4243L54.9622 54.2768H50.6899L49.6586 54.5719L48.3327 56.4897L47.0068 57.8174L45.5336 58.1125L37.8729 57.965L17.9845 57.5224L12.0917 57.2273L12.8283 58.7026L14.4488 58.8501L33.6006 59.4402L40.5247 59.7353L41.4086 59.8828L40.5247 61.6531L39.7881 61.8006H26.3818L29.0336 62.0957L36.3997 62.2432L39.6408 62.3907L40.0827 62.5383L39.9354 63.4234L38.7568 64.8987L33.0113 64.6036L18.1318 64.1611L17.2479 63.571L16.364 62.2432L15.6274 60.9155L15.1854 60.6204L14.1542 60.4729L15.1854 63.2759L16.8059 65.9314L17.5425 66.669L18.2792 66.9641L28.4443 67.2591L35.9577 67.4066L39.9354 67.5542V68.5868L39.1988 69.3245L38.1675 69.472L32.5693 69.6195L38.9042 69.7671L38.4622 70.9473L37.7256 71.8324L37.1363 72.1275H32.7167L22.2568 71.6849L21.2256 71.2423L20.1943 70.0621L18.8684 69.0294L17.9845 68.8819L19.4577 70.2096L21.0783 71.5374L22.8461 72.8651L24.4667 74.1928L56.4354 74.4879H61.5916L62.0336 72.57L62.6229 67.7017L63.5068 64.4561L64.3908 61.8006L65.2747 60.1779L65.864 59.4402L66.3059 59.1452H67.4845L68.3684 59.7353L69.2524 60.9155L69.547 61.063L74.2613 61.2105L74.114 56.9323L73.3774 56.3422L73.23 56.0471V54.7194L73.5247 53.9818L73.8193 53.8342L73.9666 52.9491L74.114 48.0807L74.2613 34.6559V26.9845L74.114 21.231L73.8193 16.9527L73.5247 14.1497L72.7881 13.8547L71.7568 13.1171L71.6095 12.822L71.4622 10.7566L71.0202 10.3141L71.3149 9.72396L72.4934 8.98633H72.7881L72.4934 8.10117L72.0515 7.36354L71.7568 5.29818L71.9041 4.56055ZM48.0381 17.2478L21.9622 17.8379L12.5336 17.9854L11.6497 18.428L11.2077 19.0181L10.4711 22.7062L8.99791 30.9677L8.70326 32.443V33.1806L13.5649 33.0331L21.6675 32.738L29.1809 32.5905L33.1586 32.443H40.672L41.9979 32.738L37.4309 32.8855L31.98 33.3281L29.1809 33.6232L18.8684 34.2133V34.3608H22.4042L27.4131 34.2133H40.8193L52.3104 34.0658L52.605 33.3281L53.3416 26.6895L54.0783 19.7557L54.2256 18.1329L53.7836 17.3953L53.489 17.2478H48.0381ZM7.81933 22.2637L6.05148 22.7062L6.64076 23.5914L6.49344 27.132L5.90416 33.4756L5.46219 34.9509L4.57826 35.9836L4.87291 36.1311H6.64076L6.78808 35.6885L7.67201 26.9845L8.40862 22.2637H7.81933ZM6.93541 59.4402V62.5383L7.52469 62.9809L9.43987 63.2759L11.797 63.4234H13.5649L13.4175 62.6858L12.239 60.3254L11.797 59.7353L10.7658 59.5878H8.70326L8.85058 60.3254L9.73451 60.768L9.88183 61.3581L9.14523 61.8006L8.2613 61.6531L7.67201 60.768L7.23005 59.4402H6.93541ZM69.547 62.6858L69.8416 63.2759L70.2836 63.866L70.7256 66.0789L70.8729 66.2264H76.4711L78.6809 66.374L78.9756 66.5215L78.5336 66.669L70.7256 67.1116V75.5206L73.0827 75.2255L77.6497 74.7829L81.1854 74.3404L82.364 73.8978L82.8059 73.0126L83.1006 70.3572V65.1937L82.6586 64.0135L82.0693 63.4234L80.8907 63.1284L71.3149 62.6858H69.547ZM92.0872 63.7185L91.9399 63.866V65.4888L92.2345 65.7838L99.3059 65.4888L105.346 65.3413H111.239L115.806 65.1937L117.279 65.0462V64.8987L115.511 64.6036L113.154 64.4561L105.346 64.3086L95.3282 63.866L92.0872 63.7185ZM65.1274 65.7838L64.3908 66.5215L63.6541 67.9967L63.5068 69.472L63.8015 70.2096V70.9473L63.2122 72.4225L63.3595 75.2255L64.0961 77.2909L64.8327 78.0285L65.5693 78.176L66.4533 77.4384L65.7166 76.1107L64.98 74.6354L64.6854 73.4552V70.6522L65.1274 68.5868L65.864 67.4066L66.4533 66.8165L66.3059 66.0789L65.7166 65.7838H65.1274ZM85.8997 65.7838L85.3104 66.5215L85.0157 67.8492L84.8684 69.3245V71.3898L85.1631 74.0453L85.7524 75.6681L85.8997 75.8156H86.7836L87.3729 75.078L87.8149 73.4552L87.9622 71.8324V69.3245L87.6675 66.9641L87.0782 65.9314L86.7836 65.7838H85.8997ZM7.23005 66.0789V67.8492L7.52469 68.7344L8.2613 68.8819L8.11398 67.2591L7.81933 67.1116V66.9641L8.70326 67.2591L11.797 67.5542L12.0917 68.7344L8.99791 68.5868V69.0294L10.7658 69.3245L14.5961 69.7671H15.48L15.3327 68.5868L14.7434 67.1116L14.3015 66.8165L9.14523 66.2264L7.23005 66.0789ZM66.8952 67.7017L66.1586 68.4393L65.7166 69.3245L65.5693 73.7503L66.0113 75.5206L66.6006 76.2582L67.4845 76.4057L68.0738 75.6681L68.5158 74.3404V69.7671L68.0738 68.2918L67.3372 67.7017H66.8952ZM114.333 69.6195L114.185 70.0621L114.038 71.6849L113.596 71.9799L113.743 72.4225H114.48L114.922 71.6849L115.069 70.9473V69.9146L114.333 69.6195ZM111.092 69.9146L110.944 70.0621V72.4225L110.355 72.8651L110.502 73.0126H111.239L111.681 72.57L111.828 72.1275V70.3572L111.681 69.9146H111.092ZM107.261 70.2096L107.409 73.3077L106.819 73.4552V73.7503L107.851 73.6027L108.44 72.8651V70.3572L108.293 70.2096H107.261ZM100.926 71.9799L94.1497 72.8651L88.9934 73.7503L88.6988 74.4879V75.078H90.172L100.926 73.3077L101.221 73.1601V71.9799H100.926ZM32.1274 76.4057L31.8327 76.9958L25.9399 77.1433L25.4979 77.5859L25.6452 78.176H56.4354L55.9934 77.4384L55.4041 76.8483L47.1541 76.5532L36.8417 76.4057H32.1274ZM78.239 76.2582L72.9354 76.8483L70.4309 77.2909L70.2836 77.4384V78.176L70.8729 78.4711L77.2077 77.4384L78.5336 76.9958L78.3863 76.2582H78.239Z" fill="#4E4948"/>
<path d="M77.9444 9.87158L78.681 10.0191L84.4266 12.6746L88.4042 14.5924L98.5694 19.3132L103.578 21.6737L114.775 26.8371L119.636 29.05L121.994 30.2302L122.288 30.5252L122.141 53.0967L119.784 52.8017L91.498 48.0808L92.6766 48.6709L99.4533 50.7363L103.726 52.064L108.882 53.6868L113.449 55.1621L120.226 57.2274L127.297 59.2928L128.918 59.8829L129.36 60.473H127.886L121.257 59.4403L114.48 58.5552V58.2601L112.712 58.1126L103.578 56.6373L95.181 55.1621L80.3015 52.6541L77.7971 52.2116L77.5024 52.064V44.2452L77.6498 24.1816L77.7971 11.0518L77.9444 9.87158Z" fill="#DD7D1F"/>
<path d="M48.4802 90.7158L49.0695 90.8633L48.9221 109.747L47.7436 110.779L44.5025 112.992L39.4936 116.533L36.8418 118.451L34.3373 120.221L31.6855 122.139L29.623 123.614L24.3195 127.45L21.9623 129.22L20.3418 130.4L18.8686 131.138L16.8061 131.876L15.0382 132.171H12.5338L10.7659 131.728L8.40876 130.548L6.6409 128.925L5.60965 127.745L4.5784 125.975L3.8418 124.057L3.10519 121.106L2.81055 118.746V112.107L3.25251 108.862L4.13644 105.173L5.31501 102.223L6.78822 99.4199L8.26144 97.3545L10.0293 95.2891L10.9132 94.5515L11.3552 94.699L12.6811 96.7644L13.4177 96.4693L14.4489 95.5842L14.3016 94.8465L13.4177 93.5188L13.565 92.9287L14.8909 92.1911L15.7748 91.7485L16.3641 92.4861L17.1007 93.8139L16.8061 94.404L15.4802 95.4367H15.1855L15.6275 96.4693L16.3641 97.6495L17.1007 97.3545L18.2793 96.6169H18.7213L19.8998 98.5347L20.6364 98.2396L22.1096 97.207L22.6989 97.502L23.7302 99.1248V99.5674L21.9623 100.748L22.1096 101.338L22.9936 102.813L23.8775 102.518L24.9088 101.78H25.498L26.382 103.108L26.5293 103.551L27.2659 103.256L29.0338 102.37L30.2123 104.141L31.2436 103.551L32.5695 102.518L35.3686 100.453L38.0204 98.5347L40.3775 96.7644L43.1766 94.699L45.6811 92.7812L47.7436 91.1584L48.4802 90.7158ZM12.2391 97.9446L10.9132 98.8298L11.0605 99.5674L11.7972 100.6L12.6811 100.453L13.565 99.7149L13.4177 98.9773L12.8284 97.9446H12.2391ZM19.7525 98.9773L17.8373 100.157L18.8686 101.78L19.4579 102.223L20.9311 101.338L21.373 101.043L21.2257 100.305L20.3418 99.1248L19.7525 98.9773ZM18.8686 102.96L17.5427 103.846L17.69 104.583L18.5739 105.911L19.1632 105.616L20.3418 104.731L20.4891 104.436L19.7525 103.108L19.6052 102.96H18.8686ZM26.5293 103.993L24.9088 105.026L24.7614 105.468L25.7927 107.239L26.6766 107.091L28.0025 106.059L27.7079 105.026L27.1186 104.141L26.5293 103.993Z" fill="#DE7E20"/>
<path d="M111.239 90.5684H116.395L116.542 104.878L55.8461 105.026L55.6987 104.878L55.8461 100.895L56.5827 100.748H63.0648L68.5157 100.6L68.3684 97.6496H55.6987L55.8461 94.2565L56.5827 93.5189H68.663L71.9041 93.6664L72.6407 94.109L73.3773 94.9941L73.5246 95.7318L73.6719 100.6L82.5112 100.748L82.3639 93.5189H87.6675V100.895L90.3193 100.748L102.252 100.6V97.6496H92.9711V94.109L93.413 93.5189H103.136L105.788 93.6664L106.672 94.2565L107.261 95.1417L107.409 95.8793L107.556 100.158L107.703 100.895L109.029 101.338L110.502 101.19L111.092 100.6L111.239 99.8625V90.5684Z" fill="#4A4443"/>
<path d="M15.6271 91.7485L16.3637 92.4862L17.1003 93.8139L16.8057 94.404L15.4798 95.4367H15.1851L15.6271 96.4694L16.3637 97.6496L17.1003 97.3545L18.2789 96.6169H18.7208L19.8994 98.5347L20.636 98.2397L22.1092 97.207L22.6985 97.5021L23.7298 99.1248V99.5674L21.9619 100.748L22.1092 101.338L22.9932 102.813L23.8771 102.518L24.9083 101.78H25.4976L26.3816 103.108L26.5289 103.551L27.2655 103.256L29.0333 102.37L30.3592 104.288L29.6226 105.026L28.4441 105.911L27.8548 105.764L27.2655 104.583L27.1182 104.141L26.2342 104.288L24.9083 105.173L25.203 106.059L25.9396 107.239L25.645 107.829L22.8458 109.599L19.0155 111.812L16.6583 112.845L15.3325 113.14L13.27 113.287L11.2075 112.992L9.29227 112.255L7.52441 111.222L6.0512 109.747L5.01995 107.976L4.43066 105.616V104.288L5.75656 101.338L6.78781 99.4199L8.26102 97.3545L10.0289 95.2892L10.9128 94.5515L11.3548 94.6991L12.6807 96.7644L13.4173 96.4694L14.4485 95.5842L14.3012 94.8466L13.4173 93.5188L13.5646 92.9287L14.8905 92.1911L15.6271 91.7485ZM12.2387 97.9446L10.9128 98.8298L11.0601 99.5674L11.7967 100.6L12.6807 100.453L13.5646 99.7149L13.4173 98.9773L12.828 97.9446H12.2387ZM19.7521 98.9773L17.8369 100.158L18.8682 101.78L19.4575 102.223L20.9307 101.338L21.3726 101.043L21.2253 100.305L20.3414 99.1248L19.7521 98.9773ZM18.8682 102.961L17.5423 103.846L17.6896 104.583L18.5735 105.911L19.1628 105.616L20.3414 104.731L20.4887 104.436L19.7521 103.108L19.6048 102.961H18.8682Z" fill="#727073"/>
<path d="M18.7212 42.9175H46.2703L46.7123 43.5076L46.8596 45.1304L29.3283 44.9828H23.8774L15.3328 45.1304L13.8596 45.2779L19.3105 45.4254L23.4355 45.5729L41.556 45.868H46.7123L46.4176 47.3433L46.123 47.9334H39.6408L28.4444 47.7858H14.4489L13.7123 47.6383L14.0069 48.2284L14.7435 48.3759L19.8998 48.5235L39.0515 48.671H45.9756L45.5337 50.2938L45.0917 50.7364H33.0114L24.0248 51.0314L22.5515 51.1789L42.8819 51.3265L45.0917 51.1789L44.5024 52.6542L43.7658 53.0968H16.2167L15.3328 52.8017L14.5962 52.0641L13.8596 49.7037L12.9757 46.1631L12.5337 44.6878V43.6551L12.681 43.2125L12.9757 43.065L18.7212 42.9175Z" fill="#4E4948"/>
<path d="M59.3818 2.93799H62.3283L63.2122 3.38057V3.52809L55.4042 4.26572L49.2167 5.00335L41.9979 5.74098L41.4086 5.88851L43.6184 6.03603L49.0693 6.18356V6.33109L43.6184 7.06872L34.9265 7.95387L33.4533 8.24893L32.7167 9.13408L32.5693 9.57666H55.1095V9.87171L51.7211 10.3143L48.0381 10.6093L40.9667 11.0519L36.8417 11.347L33.0113 11.4945L25.3506 12.2321H53.3417L56.1408 12.3797L56.5827 12.9698V13.2648L55.8461 13.4123L30.2122 14.15L23.5827 14.445L17.2479 14.5925H12.9756L13.5649 13.5599L14.5961 12.2321L16.0693 11.1994L19.4577 10.4618L24.614 10.0192L26.2345 9.87171L29.0336 7.06872L30.2122 6.03603L31.5381 5.00335L33.1586 4.56077L38.7568 3.82314L42.5872 3.52809L51.2792 3.08551L59.3818 2.93799Z" fill="#524D4C"/>
<path d="M119.194 111.517H124.203V126.712H119.636L119.342 126.27L118.605 126.417L117.721 126.86L116.985 127.007H115.511L113.891 126.565L113.007 125.975L111.976 124.942L111.386 123.762L111.092 122.729V119.779L111.681 118.156L112.565 116.681L113.596 115.795L115.069 115.205L115.806 115.058H119.194V111.517ZM118.458 118.303L117.132 118.598L116.248 119.336L115.806 120.369V121.991L116.395 122.877L117.427 123.319L118.458 122.877L119.047 121.991L119.194 121.401L119.342 118.893L119.194 118.303H118.458Z" fill="#4C4645"/>
<path d="M60.8551 115.058H64.6855L66.1587 115.5L67.0426 116.09L67.6319 116.828L67.9265 117.861V126.712H63.0649L62.9176 126.122V124.647L62.4757 126.565L62.3283 126.86L61.4444 127.007H59.5292L57.7614 126.565L56.8774 125.975L56.1408 124.942L55.8462 123.909V122.434L56.4355 121.254L57.4667 120.369L59.2346 119.631L62.0337 119.041L62.7703 118.598L62.9176 118.008L60.7078 118.156L57.614 119.041L57.0248 118.893L57.3194 115.648L57.4667 115.5L60.8551 115.058ZM62.7703 122.139L60.8551 122.876L60.5605 123.172L60.7078 123.909L60.8551 124.057H62.0337L63.0649 123.614L63.2123 123.467V122.139H62.7703Z" fill="#4A4443"/>
<path d="M77.3552 111.222H82.5114V114.762H77.6498V115.057H82.5114V121.549L82.6588 129.072L82.3641 130.105L81.3329 131.285L80.3016 131.728L79.4177 131.875H77.2079L74.5561 131.58L74.2614 130.695L73.9668 128.187V127.45L74.7034 127.597L75.1454 127.745H76.7659L77.3552 127.302L77.5025 126.712V119.041L77.3552 114.762V111.222Z" fill="#4A4443"/>
<path d="M88.5516 115.058H92.382L94.2972 115.648L95.4757 116.68L96.507 118.598L96.6543 119.336V121.696L96.3597 121.844L89.1409 121.696L89.7302 122.876L90.6141 123.319H92.9713L95.3284 122.729H95.9177L95.623 125.679L95.4757 126.565L93.8552 126.86L92.6766 127.007H90.1722L87.815 126.565L86.6364 125.975L85.7525 125.237L84.8686 123.909L84.4266 122.286L84.2793 120.516L84.7213 118.451L85.4579 116.975L86.4891 115.943L87.9623 115.205L88.5516 115.058ZM90.3195 118.156L89.4355 118.598L89.1409 119.483H91.94L91.7927 118.598L91.498 118.303L90.3195 118.156Z" fill="#4C4645"/>
<path d="M102.105 115.058H105.641L107.261 115.5L108.145 116.09L109.176 117.123L109.766 118.303L110.06 120.074L109.913 121.696H102.399L103.136 122.876L103.873 123.319L105.199 123.467L106.966 123.172L108.734 122.729H109.176V124.057L108.882 126.417L108.292 126.712L105.935 127.007H103.431L101.663 126.712L100.19 126.122L98.8638 124.942L98.1272 123.467L97.8325 122.434V119.336L98.4218 117.713L99.3057 116.533L100.337 115.648L101.368 115.205L102.105 115.058ZM103.578 118.156L102.989 118.451L102.694 119.336L103.578 119.483H105.199L105.346 118.893L104.609 118.156H103.578Z" fill="#4A4544"/>
<path d="M118.458 90.4209H124.056L124.203 104.878H118.458V90.4209Z" fill="#4A4444"/>
<path d="M70.2836 111.37L74.9978 111.517L75.1452 111.665V126.712L74.5559 126.86L70.1362 126.712L70.2836 121.992V116.976L70.1362 111.517L70.2836 111.37Z" fill="#4A4443"/>
<path d="M18.7212 42.9175H46.2703L46.7123 43.5076L46.8596 45.1304L29.3283 44.9828H13.123L12.9757 45.7205L12.681 45.2779L12.5337 44.6878V43.6551L12.681 43.2125L12.9757 43.065L18.7212 42.9175Z" fill="#4E4948"/>
<path d="M13.1229 44.9829H15.3327V45.1304L13.8595 45.278L19.3104 45.4255L23.4354 45.573L41.5559 45.8681H46.7122L46.4176 47.3433L46.1229 47.9334H39.6408L28.4443 47.7859H14.4488L13.7122 47.6384L14.0068 48.376H13.5649L12.9756 46.1631L13.1229 44.9829Z" fill="#504A49"/>
<path d="M87.3729 22.1162L87.8149 22.7063L87.9622 23.4439L87.2256 23.5915L87.5202 24.4766L87.8149 25.0667L88.8461 25.2143L88.9934 26.2469L88.6988 26.837L88.8461 27.4271L89.5827 27.7222H90.172L90.3193 28.7549L91.4979 28.6074L91.7926 29.0499L91.6452 30.6727L91.7926 31.2628L91.3506 31.7054L88.8461 32.443H87.6676L86.1943 32.0005L85.0158 31.4104L83.6899 30.5252L83.3952 30.3777V30.0826H83.1006L82.6586 29.345L82.2167 27.8697L82.0693 27.7222L82.2167 26.0994L83.1006 24.4766L84.4265 23.1489L85.1631 22.7063H85.6051L86.047 23.739L86.6363 23.8865H86.9309L86.7836 23.2964L86.6363 22.5588L87.3729 22.1162Z" fill="#C66F1B"/>
<path d="M59.3818 21.231H61.8863V21.6735L60.8551 21.8211V35.2459H64.8327L64.9801 35.836L61.0024 36.8687L60.2658 37.3113L60.1184 39.3767L55.4042 39.5242L55.2568 39.0816L55.9934 37.9014L57.9086 36.5737L58.0559 31.8528L58.2033 24.329L58.3506 21.9686L58.9399 21.3785L59.3818 21.231Z" fill="#4E4948"/>
<path d="M5.01995 103.846L5.31459 104.141L5.60924 105.173L7.22977 105.764V106.059H7.52441V106.354L8.1137 106.649L9.29227 107.829L11.3548 108.714L12.0914 109.157L12.9753 109.747L16.0691 110.779L16.953 111.665H17.9842L20.7833 110.337L21.9619 109.599H22.4039L22.5512 109.304L23.5824 108.862V109.157L20.0467 111.222L17.8369 112.402L16.0691 112.992L13.5646 113.287L11.2074 112.992L9.29227 112.255L7.52441 111.222L6.0512 109.747L5.01995 107.976L4.43066 105.616V104.583H4.72531L4.87263 103.993L5.01995 103.846Z" fill="#46403F"/>
<path d="M48.0379 18.4282H52.8995L52.7522 20.3461L50.1004 20.4936L37.4307 20.3461L19.8995 19.9035L17.395 19.6084L17.5423 19.3134L19.4575 19.1659L31.3906 18.7233L48.0379 18.4282Z" fill="#4E4948"/>
<path d="M48.7744 23.1489H52.4575L52.6048 23.444V25.0668L52.1628 25.3618H48.1851L30.8012 25.0668L23.5824 24.9192L22.1092 24.6242L21.9619 24.1816L35.9574 23.5915L46.27 23.2965L48.7744 23.1489Z" fill="#4E4948"/>
<path d="M54.3727 58.9976H55.5513L55.9932 59.2926L56.1406 60.3253L55.8459 60.9154L54.962 61.0629L54.3727 60.3253H51.7209L50.837 61.0629V62.2431L51.2789 62.8332L51.7209 62.9808H53.4888L54.52 62.5382L54.8147 61.8006H55.1093V62.0956H55.8459L55.6986 63.4233L55.2566 64.6035H44.2075L44.6495 63.2758L46.1227 60.6203L47.3013 59.5877L52.0156 59.2926L54.3727 58.9976Z" fill="#4E4948"/>
<path d="M102.4 29.7876L104.462 30.5252L107.409 31.853L107.556 34.656L109.913 35.5411V33.1807L110.945 33.3282L111.092 33.4757L111.239 36.2787L111.976 36.4263L114.775 37.459L114.48 36.4263L112.418 35.3936V34.0659L114.333 34.8035L115.512 35.5411L115.806 37.9015L116.248 38.1966L116.395 35.0985L117.427 35.2461L117.721 39.8194L116.395 39.3768L113.302 38.1966L105.052 35.0985L102.4 34.0659V32.5906L106.23 34.0659V32.5906L104.757 32.148L102.4 31.1153V29.7876Z" fill="#C66F1B"/>
<path d="M44.6498 28.1646H52.1632V29.1972L51.8685 30.0824H44.0605L37.1364 29.7873L29.7703 29.6398L28.0024 29.4923L28.2971 29.3448V28.9022L32.7167 28.6071L44.6498 28.1646Z" fill="#4E4948"/>
<path d="M50.2477 67.2593H54.8147L54.962 67.7019L54.6673 69.0296L54.0781 69.9147L53.1941 70.5049L52.0156 70.7999L49.9531 70.9474H47.8906V69.7672L48.0379 69.6197H51.2789L52.4575 69.1771L53.0468 68.292L52.0156 68.4395L46.5647 68.587L46.1227 70.3573L45.6807 70.7999H41.1138L41.2611 69.9147L41.9977 68.4395L42.8816 67.5543L50.2477 67.2593Z" fill="#4E4948"/>
<path d="M65.7167 22.4111L66.6006 22.5587L67.7792 23.5913L67.9265 24.0339L67.3372 24.1814V34.8033L66.0113 35.2459H65.7167V30.23L65.5693 22.7062L65.7167 22.4111Z" fill="#4E4948"/>
<path d="M98.5691 105.763H101.958L102.105 105.911V109.156L101.958 109.304L96.9486 109.451L96.8013 109.304V106.058L96.9486 105.911L98.5691 105.763Z" fill="#544F4E"/>
<path d="M83.9844 105.763H89.1406V109.304H83.9844V105.763Z" fill="#514C4B"/>
<path d="M81.6273 105.763H82.3639L82.5112 105.911L82.6586 107.829V109.304L77.355 109.451V106.058L77.5023 105.911L81.6273 105.763Z" fill="#4E4948"/>
<path d="M111.239 90.5684H116.395L116.542 104.878L55.8461 105.026L55.6987 104.878L55.8461 100.895H55.9934V104.731H116.248V90.7159H111.386V95.2892H111.239V90.5684Z" fill="#4A4443"/>
<path d="M102.989 38.7866L104.462 39.0817L105.788 39.6718L105.935 43.8025L104.609 43.5075L103.136 43.0649L102.694 42.6223L102.547 41.2946L103.283 40.5569H104.757L104.609 40.2619L102.989 39.9668L102.842 39.6718L102.989 38.7866Z" fill="#C7701B"/>
<path d="M118.163 42.4746L118.752 42.6221L118.9 42.7697V47.1954L117.132 46.9004L116.69 46.1628L116.542 45.2776V43.8023L117.279 43.2122L118.163 43.5073V42.4746Z" fill="#C66F1B"/>
<path d="M15.6273 91.7485L16.3639 92.4862L17.1005 93.8139L16.8059 94.404L15.48 95.4367H15.1853L15.038 95.8793V95.5842L14.3014 95.8793L14.4487 95.1416L13.4175 93.5188L13.5648 92.9287L14.8907 92.1911L15.6273 91.7485Z" fill="#878588"/>
<path d="M108.587 40.5571L109.766 40.8522L109.913 45.8681L109.618 46.4582L109.029 46.6057L107.998 46.1631L107.703 45.7205V44.9829L107.998 44.8354L108.587 44.6879V40.5571Z" fill="#C66F1B"/>
<path d="M111.092 41.2944L112.565 41.737L113.007 42.4746L113.154 44.0974L112.565 43.9499L112.712 42.9172H112.418V43.9499L111.386 43.5073L111.534 44.245L113.007 44.6875V45.5727L112.27 45.7202L110.797 44.9826L110.502 44.3925V42.0321L111.092 41.2944Z" fill="#C66F1B"/>
<path d="M22.1092 97.207L22.6985 97.5021L23.7298 99.1249V99.5674L21.9619 100.748L21.6673 101.043L21.2253 100.6L20.3414 99.2724L19.8994 98.9773V98.6823L20.7833 98.0922L22.1092 97.207Z" fill="#7C7A7D"/>
<path d="M106.672 38.4917L107.703 38.6392L107.998 38.9343V44.5403L106.672 44.0977V38.4917Z" fill="#C66F1B"/>
<path d="M28.8861 102.37L29.4754 102.96L30.3593 104.435L29.0334 105.468L28.4441 105.911L27.8548 105.763L27.2656 104.583L27.1182 104.14L26.6763 103.993L26.8236 103.55L28.8861 102.37Z" fill="#757376"/>
<path d="M114.185 42.3271L114.922 42.4747L115.806 43.0648L116.101 44.8351L115.806 44.9826L115.069 44.6876L114.333 44.54L114.627 45.1301L115.806 45.4252L115.953 46.1628L115.806 46.4579L114.48 46.1628L113.891 45.8678L113.744 45.5727L113.596 43.0648L114.185 42.3271Z" fill="#C9701B"/>
<path d="M25.0557 93.5186L25.7923 93.6661L26.6763 94.9938L26.8236 95.4364L25.3504 96.4691L24.6138 96.6166L23.5825 95.1413V94.4037L25.0557 93.5186Z" fill="#828183"/>
<path d="M27.7075 97.6494L28.4441 97.7969L29.328 99.1247L29.1807 99.8623L27.8548 100.6L27.1182 100.452L26.0869 99.1247L26.3816 98.5346L27.7075 97.6494Z" fill="#828083"/>
<path d="M56.7298 53.2441H58.4976L63.0646 53.8342L66.6003 54.4243L67.7789 55.0145L68.0735 55.457L57.1717 54.4243L54.9619 54.2768V54.1293H57.4664L66.3057 54.8669L59.2342 53.6867L56.7298 53.3917V53.2441Z" fill="#4E4948"/>
<path d="M20.3414 91.4531L20.9307 91.6007L21.8146 92.7809L21.9619 93.5185L20.3414 94.5512L19.7521 94.2561L18.8682 92.7809L19.6048 92.0432L20.3414 91.4531Z" fill="#8A888B"/>
<path d="M54.3727 58.9976H55.5513L55.9932 59.2926L56.1406 60.3253L55.8459 60.9154L54.962 61.0629L54.3727 60.3253L52.0156 60.1778L52.6048 59.8827L53.0468 59.7352H47.3013V59.5877L52.0156 59.2926L54.3727 58.9976Z" fill="#524D4C"/>
<path d="M24.0244 89.978L24.761 90.1256L25.4976 91.3058L25.3503 91.8959L24.1717 92.486L23.5824 92.3384L22.9932 91.4533L23.1405 90.7157L24.0244 89.978Z" fill="#929092"/>
<path d="M118.016 35.6885L118.753 35.836L118.9 35.9835V40.4093L118.163 40.1143L117.869 39.9667L118.016 35.6885Z" fill="#C66F1B"/>
<path d="M29.0337 93.6665H29.623L30.3596 94.8467L30.2123 95.5843L29.623 96.0269L28.739 96.1744L28.0024 95.1418L28.1498 94.4041L29.0337 93.6665Z" fill="#8F8D8F"/>
<path d="M121.699 57.8174L122.877 57.9649L128.623 59.7352L129.36 60.4729H127.886L121.257 59.4402L120.226 59.2926V59.1451L122.583 59.2926L127.739 60.0303H128.181L121.699 57.9649V57.8174Z" fill="#DD7D1F"/>
<path d="M50.2479 9.57666H55.1095V9.87171L51.7211 10.3143H50.3952L50.9845 10.0192L42.8818 9.87171V9.72419L50.2479 9.57666Z" fill="#4E4948"/>
<path d="M6.78809 80.3892H7.67201V80.5367L1.63184 81.7169L10.3238 81.8644V82.0119H0.600586V81.7169L2.22112 81.1268L6.78809 80.3892Z" fill="#4E4948"/>
<path d="M18.8683 50.7363H27.7076V50.8839L19.7522 51.1789H17.9844L15.9219 51.0314V50.8839L18.8683 50.7363Z" fill="#4E4948"/>
<path d="M54.3727 58.9976H55.5513L55.9932 59.2926L55.8459 59.5877H53.0468L49.6584 59.7352H47.3013V59.5877L52.0156 59.2926L54.3727 58.9976Z" fill="#524D4C"/>
<path d="M19.4575 19.1655H23.7298V19.3131L20.6361 19.4606L20.1941 19.6081L22.2566 19.7556V19.9032H19.8995L17.395 19.6081L17.5423 19.3131L19.4575 19.1655Z" fill="#4E4948"/>
<path d="M110.208 37.6064L111.239 37.754L111.533 38.049V39.2292L110.649 39.0817L110.208 38.7867V37.6064Z" fill="#C66F1B"/>
<path d="M56.5827 37.459L56.8774 37.6065L55.6988 38.9342L55.5515 39.2293H59.9711V38.0491H60.1184V39.3768L55.4042 39.5243L55.2568 39.0818L55.9934 37.9016L56.5827 37.459Z" fill="#544F4E"/>
<path d="M108.587 37.0161L109.471 37.1636L109.765 37.3112L109.913 38.4914L109.324 38.6389L108.587 38.1963V37.0161Z" fill="#C66F1B"/>
<path d="M13.123 44.9829H15.3329V45.1304L13.8597 45.278L19.3105 45.4255V45.573H13.123V44.9829Z" fill="#4E4948"/>
<path d="M108.587 38.9341L109.765 39.2291V40.5569L108.587 40.2618V38.9341Z" fill="#C66F1B"/>
<path d="M25.0557 24.0342H28.886V24.1817L23.1405 24.4768L22.1092 24.6243L21.9619 24.1817L25.0557 24.0342Z" fill="#4E4948"/>
<path d="M23.4353 108.861L23.5826 109.156L20.0469 111.222V110.779L21.3728 109.894L21.9621 109.599H22.404L22.5513 109.304L23.4353 108.861Z" fill="#4E4848"/>
<path d="M113.449 38.7866L114.333 39.0817L114.48 39.2292V40.1144L113.596 39.9668L113.449 39.8193V38.7866Z" fill="#C66F1B"/>
<path d="M89.5825 26.0991H90.3191L90.6138 26.6892V27.2793L90.0245 27.5744L89.5825 26.8368V26.0991Z" fill="#C66F1B"/>
<path d="M66.3059 59.145H67.4845V59.2925H66.4533L66.1586 59.8826L65.1274 61.0629L64.8327 61.653L64.5381 61.5054L65.5693 59.7351L66.3059 59.145Z" fill="#4E4948"/>
<path d="M40.6719 5.74072L41.4086 5.88825L43.6184 6.03577V6.1833H39.1987L39.3461 5.88825L40.6719 5.74072Z" fill="#4E4948"/>
<path d="M10.9129 94.5513L11.2076 94.6988L8.70312 97.2067V96.7642L10.6183 94.6988L10.9129 94.5513Z" fill="#727073"/>
<path d="M92.529 29.6401L93.1183 29.7877L93.2656 29.9352V30.6728L92.6763 30.8203L92.2344 30.2302L92.529 29.6401Z" fill="#C66F1B"/>
<path d="M117.721 44.3926H118.016V45.8678L117.574 46.0154L117.426 45.7203V44.5401L117.721 44.3926Z" fill="#DE7D1E"/>
<path d="M118.752 60.1777H120.815L122.73 60.3253L122.435 60.9154V60.6203L118.752 60.3253V60.1777Z" fill="#4E4948"/>
<path d="M85.4579 24.4766L86.0472 24.6241L86.3418 25.3617V25.6568L85.7525 25.5092L85.3105 25.0667L85.4579 24.4766Z" fill="#DE7D1E"/>
<path d="M88.5516 28.1646L89.1409 28.3121V28.6071H89.4355V29.1972L88.6989 29.0497L88.4043 28.9022L88.5516 28.1646Z" fill="#DE7D1E"/>
<path d="M48.0379 69.6196L51.279 69.7672V69.9147L48.3326 70.0622L47.8906 70.3573L48.0379 69.6196Z" fill="#524D4C"/>
<path d="M89.1406 23.1489L89.8772 23.2965V24.0341H89.2879L89.1406 23.1489Z" fill="#C66F1B"/>
<path d="M91.203 24.9189L91.7923 25.214L91.9396 25.8041L91.3503 25.9516L91.0557 25.214L91.203 24.9189Z" fill="#C66F1B"/>
<path d="M54.815 61.8008H55.1097V62.0958H55.8463L55.6989 62.6859V62.3909L54.815 62.6859H54.373L54.6677 62.3909L54.815 61.8008Z" fill="#524D4C"/>
</g>
<defs>
<clipPath id="clip0_9_1033">
<rect width="128.155" height="132" fill="white" transform="translate(0.922363 0.5)"/>
</clipPath>
</defs>
</svg>
